<?xml version="1.0" standalone="no"?>
<!DOCTYPE svg PUBLIC "-//W3C//DTD SVG 20010904//EN"
 "http://www.w3.org/TR/2001/REC-SVG-20010904/DTD/svg10.dtd">
<svg version="1.0" xmlns="http://www.w3.org/2000/svg"
 width="512.000000pt" height="512.000000pt" viewBox="0 0 512.000000 512.000000"
 preserveAspectRatio="xMidYMid meet">
<metadata>
Created by potrace 1.16, written by Peter Selinger 2001-2019
</metadata>
<g transform="translate(0.000000,512.000000) scale(0.100000,-0.100000)"
fill="#000000" stroke="none">
<path d="M2350 5099 c-204 -18 -432 -66 -631 -134 -235 -81 -585 -278 -776
-438 -107 -89 -336 -326 -406 -419 -147 -197 -310 -498 -382 -707 -189 -552
-189 -1139 0 -1692 81 -235 278 -585 438 -776 89 -107 326 -336 419 -406 198
-148 498 -310 708 -382 654 -225 1356 -183 1965 119 278 138 477 280 684 487
207 207 349 406 487 684 302 609 344 1311 119 1965 -72 210 -234 510 -382 708
-70 93 -299 330 -406 419 -191 160 -541 357 -776 438 -343 117 -712 164 -1061
134z m588 -39 c726 -107 1377 -532 1769 -1154 126 -200 238 -452 299 -676 200
-725 70 -1494 -360 -2119 l-50 -74 -35 44 c-81 102 -135 144 -253 196 -133 59
-174 72 -328 109 -63 15 -129 31 -147 36 l-32 9 39 52 c56 73 70 107 69 169
-1 163 -132 273 -419 353 -30 9 -115 18 -187 22 l-133 6 0 25 c0 18 18 43 63
86 105 102 194 270 223 426 9 47 18 90 20 96 1 6 23 21 49 34 113 55 221 160
261 255 9 22 18 72 19 110 2 39 8 83 14 99 48 121 66 369 37 506 -15 70 -72
186 -115 234 -53 58 -212 156 -293 180 -9 2 -19 20 -23 38 -4 18 -25 66 -47
105 -74 137 -240 234 -497 293 -117 27 -398 -8 -434 -53 -8 -9 -40 -17 -87
-21 -129 -11 -153 -15 -220 -32 -76 -20 -197 -88 -278 -157 -69 -57 -81 -80
-59 -105 15 -16 12 -21 -45 -67 -33 -28 -89 -82 -123 -121 -158 -181 -200
-299 -196 -559 2 -131 19 -218 58 -302 14 -29 14 -37 0 -65 -25 -55 -28 -113
-12 -186 25 -108 93 -189 185 -222 35 -12 35 -14 57 -112 32 -146 81 -244 159
-315 34 -32 82 -72 106 -88 36 -26 44 -37 46 -68 2 -20 2 -37 0 -37 -2 -1 -37
-3 -78 -6 -136 -9 -384 -58 -465 -91 -46 -19 -139 -85 -172 -122 -27 -30 -63
-138 -63 -187 0 -44 26 -110 62 -156 l29 -37 -23 -5 c-13 -3 -80 -14 -149 -25
-281 -45 -418 -120 -562 -309 -26 -34 -51 -62 -55 -62 -13 0 -111 145 -187
275 -161 276 -267 577 -317 900 -30 200 -30 540 0 740 129 838 649 1543 1407
1910 282 136 573 217 882 245 144 13 437 3 591 -20z m327 -1375 c3 -27 22 -97
40 -155 45 -139 100 -315 113 -365 6 -22 18 -49 25 -59 13 -18 15 -18 68 2 78
29 164 43 193 32 48 -18 53 -106 10 -195 -29 -62 -129 -155 -206 -192 -37 -18
-74 -43 -82 -55 -8 -13 -21 -61 -31 -107 -22 -112 -58 -200 -118 -291 -67
-101 -88 -123 -183 -186 -138 -92 -299 -158 -415 -170 -76 -7 -231 11 -303 36
-101 35 -243 108 -326 167 -157 111 -210 191 -261 391 -16 64 -35 122 -42 128
-6 6 -31 16 -55 23 -82 23 -152 124 -152 218 0 41 20 123 29 123 4 0 22 -16
41 -35 19 -19 41 -35 50 -35 20 0 40 19 40 39 0 31 58 136 91 167 51 46 81 65
239 146 l145 74 156 -3 c164 -4 177 -1 183 43 2 12 35 31 103 58 54 23 134 60
177 84 43 24 79 42 81 40 2 -2 -21 -30 -51 -61 -30 -32 -54 -65 -54 -72 0 -21
31 -34 57 -24 27 10 29 4 8 -17 -20 -20 -19 -39 2 -60 14 -14 29 -16 97 -10
45 4 99 12 121 17 23 7 74 8 122 5 77 -6 83 -5 83 12 0 11 -18 31 -42 48 -41
29 -42 29 -185 28 -79 -1 -143 0 -143 1 0 2 25 18 56 35 30 18 88 62 128 99
189 172 178 167 191 76z m-730 -104 c-6 -5 -43 -32 -84 -60 -55 -38 -84 -51
-110 -51 -46 0 -37 7 84 69 96 49 130 62 110 42z m567 -1753 c-4 -241 6 -206
-113 -393 -124 -194 -127 -197 -210 -222 -112 -34 -220 -39 -336 -17 -72 13
-103 24 -118 40 -33 36 -131 242 -169 354 -30 92 -36 125 -45 269 -6 91 -9
166 -7 169 3 2 52 -19 109 -47 127 -63 175 -77 294 -91 189 -21 318 7 518 112
38 21 72 38 75 38 3 0 4 -96 2 -212z m383 112 c155 -27 319 -129 349 -217 9
-26 16 -63 16 -83 0 -43 -44 -117 -86 -147 -49 -34 -214 -118 -304 -153 -47
-18 -124 -50 -172 -71 -48 -21 -122 -50 -165 -64 -212 -71 -410 -227 -327
-259 9 -4 30 9 52 30 76 75 184 137 296 171 27 8 99 36 160 63 61 26 154 65
206 85 52 20 116 48 142 61 26 13 58 24 70 24 51 0 459 -105 508 -131 8 -5 49
-25 90 -44 41 -20 94 -55 118 -78 53 -51 115 -134 110 -147 -8 -24 -183 -213
-274 -295 -190 -171 -366 -290 -599 -404 -306 -150 -610 -231 -964 -256 l-93
-7 4 405 4 406 85 113 c47 62 99 132 115 154 16 23 59 84 95 135 80 113 193
295 225 364 22 46 24 63 24 207 l0 157 103 3 c56 2 116 -1 132 -5 17 -4 53
-12 80 -17z m-1441 -17 c3 -21 6 -74 6 -118 0 -129 69 -340 176 -535 83 -153
143 -259 168 -298 64 -101 76 -138 69 -202 l-6 -62 -84 -70 c-96 -81 -100 -97
-38 -140 56 -38 76 -36 123 17 22 25 41 45 43 45 3 0 4 -17 2 -37 -1 -21 -3
-143 -5 -271 l-3 -233 -85 7 c-538 38 -1040 235 -1449 567 -86 69 -282 263
-325 320 l-29 38 36 52 c52 76 135 165 176 191 106 67 235 108 443 141 134 21
148 20 210 -17 114 -69 306 -142 518 -198 79 -21 253 -103 292 -137 21 -18 52
-13 56 9 2 10 -8 28 -22 41 -46 43 -226 125 -336 153 -120 31 -335 109 -429
157 -86 43 -195 145 -217 203 -19 50 -14 136 11 183 33 66 134 130 250 161 91
24 299 57 426 69 12 1 18 -10 23 -36z m531 -797 c50 0 117 4 149 8 l59 6 -18
-27 c-23 -35 -133 -187 -160 -220 -16 -19 -26 -23 -52 -17 -32 6 -47 28 -170
257 -3 4 19 4 49 0 29 -4 94 -8 143 -7z m-48 -368 c-2 -13 -4 -3 -4 22 0 25 2
35 4 23 2 -13 2 -33 0 -45z m-43 -120 c-29 -44 -84 -108 -93 -108 -4 0 -13 5
-21 10 -12 8 -1 23 60 79 41 38 76 68 78 66 2 -2 -9 -23 -24 -47z"/>
<path d="M2909 3225 c-48 -25 -63 -44 -53 -70 8 -21 31 -19 66 6 21 15 50 23
97 26 59 5 70 2 105 -22 41 -28 66 -27 66 3 0 20 -31 52 -67 71 -12 6 -55 11
-95 11 -57 -1 -83 -6 -119 -25z"/>
<path d="M2220 3220 c-51 -24 -90 -57 -90 -77 0 -25 27 -24 65 1 21 14 54 30
75 36 45 12 123 -1 150 -25 12 -11 26 -14 40 -10 29 9 23 42 -13 69 -42 31
-165 34 -227 6z"/>
<path d="M2589 2831 c-59 -19 -119 -63 -119 -88 0 -25 30 -25 69 0 56 37 98
42 146 17 21 -11 44 -20 51 -20 17 0 35 26 29 42 -14 36 -121 66 -176 49z"/>
<path d="M2168 2529 c-24 -14 -23 -24 9 -54 88 -81 271 -136 463 -138 103 -2
124 1 200 27 98 33 170 66 170 78 0 4 6 8 13 8 19 0 47 33 47 54 0 23 -27 31
-48 13 -23 -20 -88 -52 -169 -83 -54 -20 -92 -27 -183 -31 -178 -8 -332 31
-439 111 -39 29 -39 29 -63 15z"/>
<path d="M3492 1881 c-27 -17 -7 -42 53 -66 123 -50 157 -131 96 -228 -26 -40
-43 -53 -126 -93 -101 -49 -118 -65 -93 -90 13 -14 25 -10 104 26 125 57 188
123 205 214 11 58 -4 105 -49 151 -57 60 -160 106 -190 86z"/>
<path d="M1484 1791 c-114 -66 -118 -227 -6 -318 63 -52 219 -113 286 -113 41
0 58 4 62 15 10 26 -16 45 -62 45 -45 0 -212 66 -248 98 -26 24 -57 89 -58
122 -1 45 32 91 79 109 57 22 70 36 53 56 -19 22 -49 18 -106 -14z"/>
</g>
</svg>
